<svg width="70" height="70" viewBox="0 0 70 70" fill="#212528"  xmlns="http://www.w3.org/2000/svg">
<path d="M27.5545 66.4113L28.1869 62.456L28.8357 62.5597L28.5591 64.2898L30.4201 64.5873L30.6967 62.8572L31.3454 62.9609L30.7131 66.9163L30.0643 66.8125L30.3355 65.1166L28.4745 64.8191L28.2033 66.515L27.5545 66.4113Z" />
<path d="M24.628 61.3367C24.9782 61.4643 25.2717 61.6632 25.5085 61.9336C25.7405 62.2062 25.8898 62.5202 25.9565 62.8758C26.0184 63.2336 25.9822 63.5967 25.848 63.9649C25.7139 64.3331 25.5087 64.6326 25.2325 64.8632C24.9527 65.0924 24.637 65.2351 24.2853 65.291C23.9288 65.3492 23.5755 65.3145 23.2253 65.1869C22.8715 65.058 22.5786 64.8573 22.3467 64.5847C22.1099 64.3144 21.9599 64.0021 21.8967 63.6479C21.8336 63.2936 21.8691 62.9324 22.0033 62.5642C22.1374 62.1959 22.3433 61.8947 22.6208 61.6605C22.897 61.4299 23.2134 61.2855 23.5699 61.2273C23.9215 61.1713 24.2742 61.2078 24.628 61.3367ZM24.4327 61.8728C24.1836 61.7821 23.9412 61.7571 23.7054 61.798C23.4684 61.8425 23.2576 61.9497 23.073 62.1197C22.8835 62.2919 22.7381 62.517 22.6368 62.795C22.5356 63.073 22.5027 63.337 22.5384 63.5872C22.5704 63.836 22.6635 64.0519 22.8177 64.2349C22.9718 64.4178 23.1735 64.5547 23.4226 64.6454C23.6717 64.7362 23.9141 64.7611 24.1498 64.7202C24.3855 64.6793 24.5975 64.5746 24.7857 64.4059C24.9703 64.236 25.1132 64.0121 25.2145 63.7341C25.3157 63.4561 25.351 63.1909 25.3203 62.9384C25.2847 62.6883 25.1904 62.4699 25.0376 62.2834C24.8834 62.1004 24.6818 61.9636 24.4327 61.8728Z"/>
<path d="M14.5983 60.5261L17.7574 57.7922L18.3836 58.193L17.4583 61.2L19.8448 59.1281L20.4693 59.5208L19.2634 63.5115L18.676 63.1356L19.7353 59.9407L17.2197 62.2037L16.5983 61.806L17.6434 58.6225L15.1905 60.9051L14.5983 60.5261Z" />
<path d="M10.0924 13.9386L13.2308 16.4275L12.8226 16.9423L11.4498 15.8536L10.2788 17.3303L11.6516 18.4189L11.2433 18.9337L8.10487 16.4448L8.51312 15.93L9.85881 16.9972L11.0299 15.5206L9.68416 14.4534L10.0924 13.9386Z" />
<path d="M15.9503 13.8733C15.6675 14.1161 15.3503 14.2745 14.9986 14.3485C14.6473 14.4172 14.3004 14.3935 13.9577 14.2775C13.6154 14.1561 13.3167 13.9467 13.0614 13.6494C12.8061 13.3521 12.6455 13.0265 12.5798 12.6727C12.517 12.3165 12.5473 11.9714 12.6708 11.6374C12.7948 11.2981 12.9981 11.007 13.2809 10.7643C13.5665 10.519 13.885 10.362 14.2363 10.2934C14.588 10.2193 14.9337 10.2415 15.2734 10.36C15.6132 10.4785 15.9107 10.6864 16.166 10.9838C16.4213 11.2811 16.5831 11.6081 16.6513 11.9648C16.717 12.3186 16.6879 12.6651 16.564 13.0045C16.4405 13.3384 16.2359 13.628 15.9503 13.8733ZM15.5786 13.4404C15.7797 13.2677 15.9202 13.0686 16 12.843C16.0774 12.6146 16.0872 12.3783 16.0294 12.1341C15.9721 11.8845 15.8471 11.6475 15.6544 11.423C15.4617 11.1986 15.2475 11.0406 15.012 10.9491C14.7794 10.8551 14.5455 10.8305 14.3105 10.8753C14.0755 10.9201 13.8575 11.0288 13.6563 11.2015C13.4552 11.3742 13.3147 11.5733 13.2348 11.7989C13.155 12.0244 13.1425 12.2605 13.1973 12.5072C13.255 12.7513 13.3802 12.9857 13.573 13.2101C13.7657 13.4346 13.9796 13.5953 14.2148 13.6922C14.4503 13.7837 14.6868 13.8085 14.9243 13.7666C15.1593 13.7218 15.3774 13.6131 15.5786 13.4404Z" />
<path d="M21.5701 5.52624L22.4059 9.61959L21.7497 9.9692L19.5815 7.68946L20.2187 10.785L19.5704 11.137L16.682 8.13076L17.2975 7.80282L19.5639 10.2914L18.8234 6.98976L19.4745 6.64285L21.7379 9.11351L20.9495 5.85689L21.5701 5.52624Z" />
<path d="M32.1497 3.0137L31.5717 7.15133L30.8365 7.26196L29.5534 4.38939L29.1211 7.52011L28.3924 7.63558L26.6728 3.83788L27.3624 3.73411L28.6685 6.83637L29.0722 3.47682L29.8017 3.36704L31.1109 6.45135L31.4544 3.11833L32.1497 3.0137Z" />
<path d="M35.1401 3.61074L35.0865 4.78525L36.4682 4.84835L36.4438 5.38379L35.062 5.32069L35.006 6.54701L36.5605 6.618L36.5361 7.15344L34.3252 7.05247L34.5082 3.04533L36.7191 3.1463L36.6946 3.68174L35.1401 3.61074Z" />
<path d="M47.4604 5.82617L45.0046 9.20597L44.3037 8.95788L44.5221 5.81931L42.6684 8.37901L41.971 8.13828L42.2392 3.97801L42.8966 4.21071L42.5905 7.56276L44.5266 4.78766L45.222 5.03383L44.927 8.37149L46.7976 5.59154L47.4604 5.82617Z" />
<path d="M49.0072 11.3738C48.6914 11.1758 48.446 10.9199 48.2709 10.606C48.1012 10.291 48.0208 9.95259 48.0299 9.59094C48.0443 9.22807 48.1556 8.88063 48.3638 8.5486C48.5721 8.21658 48.8353 7.9667 49.1537 7.79897C49.4753 7.63329 49.8138 7.55987 50.1693 7.57874C50.5302 7.59638 50.8685 7.70421 51.1842 7.90221C51.5032 8.10226 51.7476 8.35982 51.9174 8.67491C52.0924 8.98877 52.1738 9.32551 52.1614 9.68512C52.1491 10.0447 52.0388 10.3905 51.8306 10.7226C51.6224 11.0546 51.3581 11.3061 51.0377 11.4771C50.7194 11.6448 50.3798 11.7199 50.019 11.7022C49.6634 11.6833 49.3262 11.5739 49.0072 11.3738ZM49.3103 10.8905C49.5349 11.0313 49.7667 11.1064 50.0058 11.1157C50.2469 11.1218 50.4755 11.061 50.6915 10.9335C50.9129 10.8047 51.1021 10.615 51.2593 10.3643C51.4165 10.1137 51.5038 9.86232 51.5213 9.61024C51.542 9.3602 51.4962 9.12961 51.3837 8.91847C51.2712 8.70733 51.1026 8.53134 50.878 8.39049C50.6534 8.24964 50.4216 8.17456 50.1825 8.16524C49.9435 8.15592 49.7143 8.21402 49.495 8.33954C49.2789 8.4671 49.0923 8.6562 48.9351 8.90685C48.7779 9.1575 48.688 9.40947 48.6652 9.66276C48.6477 9.91484 48.6942 10.1481 48.8046 10.3625C48.9171 10.5736 49.0857 10.7496 49.3103 10.8905Z" />
<path d="M53.6295 14.9263L54.0336 13.1224L53.6643 12.7833L52.5808 13.9637L52.0968 13.5194L54.8055 10.5686L55.8245 11.504C56.0509 11.7118 56.2056 11.9268 56.2885 12.149C56.3743 12.3737 56.3943 12.5877 56.3486 12.7909C56.3057 12.9967 56.209 13.1817 56.0582 13.3458C55.8816 13.5383 55.6639 13.6618 55.4051 13.7164C55.1518 13.7708 54.8832 13.7197 54.5991 13.5633L54.2069 15.4564L53.6295 14.9263ZM54.0189 12.397L54.5539 12.8881C54.735 13.0544 54.9125 13.1338 55.0862 13.1264C55.2628 13.1215 55.4212 13.0427 55.5615 12.8898C55.7018 12.737 55.7656 12.5765 55.753 12.4085C55.743 12.2376 55.646 12.0677 55.462 11.8988L54.927 11.4077L54.0189 12.397Z" />
<path d="M56.767 18.517L57.2274 16.1923L55.8138 17.2943L55.4098 16.7761L58.5688 14.3134L58.9728 14.8315L57.5319 15.9548L59.9295 16.0588L60.4363 16.7087L57.7844 16.5692L57.295 19.1942L56.767 18.517Z" />
<path d="M64.3924 24.4212L60.6851 25.938L60.4363 25.3299L62.0579 24.6664L61.3443 22.9222L59.7227 23.5856L59.4739 22.9775L63.1812 21.4607L63.43 22.0688L61.8404 22.7192L62.554 24.4635L64.1436 23.8131L64.3924 24.4212Z" />
<path d="M61.5795 29.5597C61.5064 29.1943 61.5237 28.8401 61.6314 28.4972C61.7437 28.1574 61.9343 27.8665 62.2032 27.6246C62.4768 27.3857 62.8056 27.2278 63.1899 27.1509C63.5742 27.074 63.9367 27.0935 64.2773 27.2095C64.6186 27.3293 64.9046 27.5248 65.1352 27.7961C65.3704 28.0703 65.5245 28.3902 65.5976 28.7556C65.6715 29.1248 65.6524 29.4794 65.5401 29.8192C65.4324 30.1621 65.2437 30.4526 64.9739 30.6908C64.7042 30.9289 64.3772 31.0864 63.9929 31.1633C63.6086 31.2402 63.2443 31.2211 62.8999 31.1058C62.5593 30.9898 62.2714 30.7947 62.0363 30.5204C61.8057 30.2492 61.6534 29.9289 61.5795 29.5597ZM62.139 29.4478C62.191 29.7077 62.2958 29.9277 62.4533 30.1078C62.6146 30.2871 62.8158 30.4114 63.0569 30.4807C63.3026 30.553 63.5705 30.5602 63.8606 30.5021C64.1507 30.4441 64.3933 30.3348 64.5885 30.1743C64.7844 30.0175 64.9203 29.8257 64.9964 29.5989C65.0725 29.3721 65.0845 29.1287 65.0325 28.8687C64.9805 28.6088 64.8757 28.3887 64.7182 28.2087C64.5607 28.0286 64.361 27.902 64.1191 27.829C63.878 27.7597 63.6124 27.754 63.3223 27.8121C63.0322 27.8701 62.7873 27.9779 62.5876 28.1354C62.3925 28.296 62.255 28.49 62.1751 28.7176C62.099 28.9444 62.087 29.1878 62.139 29.4478Z" />
<path d="M66.1034 38.5479L62.1254 37.2713L62.142 36.528L65.1916 35.7546L62.1809 34.7937L62.1916 34.056L66.2273 33.0107L66.2117 33.7079L62.9319 34.4646L66.173 35.4365L66.1565 36.174L62.8938 36.9369L66.1191 37.845L66.1034 38.5479Z" />
<path d="M63.1116 49.0024L59.7876 46.4716L60.0513 45.7765L63.1842 46.065L60.6667 44.1545L60.9229 43.4627L65.0762 43.8239L64.8288 44.476L61.4844 44.0949L64.2155 46.0926L63.9538 46.7823L60.6236 46.4127L63.361 48.345L63.1116 49.0024Z" />
<path d="M61.1262 51.317L60.1286 50.6949L59.3966 51.8686L58.9418 51.585L59.6738 50.4113L58.6321 49.7617L57.8087 51.0821L57.3539 50.7985L58.5249 48.9206L61.9287 51.0431L60.7576 52.9211L60.3028 52.6374L61.1262 51.317Z" />
<path d="M53.1589 60.9718L51.4155 57.1752L51.9751 56.6857L54.6043 58.4136L53.2809 55.5436L53.8324 55.0536L57.3279 57.3255L56.8029 57.7846L54.0307 55.8756L55.5015 58.9229L54.9462 59.4086L52.181 57.5164L53.6882 60.5089L53.1589 60.9718Z" />
<path d="M47.5647 59.602C47.892 59.4237 48.2353 59.3352 48.5947 59.3363C48.9525 59.3427 49.2869 59.4384 49.5977 59.6235C49.907 59.8138 50.1554 60.081 50.3428 60.4252C50.5303 60.7694 50.6192 61.1213 50.6094 61.481C50.5963 61.8425 50.4945 62.1736 50.3039 62.4743C50.1117 62.7802 49.852 63.0223 49.5247 63.2006C49.194 63.3807 48.8498 63.4676 48.4919 63.4612C48.1325 63.4601 47.7991 63.3661 47.4917 63.1791C47.1842 62.9922 46.9367 62.7266 46.7493 62.3825C46.5618 62.0383 46.472 61.6847 46.4799 61.3216C46.4897 60.9619 46.5906 60.6291 46.7827 60.3232C46.9733 60.0225 47.234 59.7821 47.5647 59.602ZM47.8376 60.1031C47.6048 60.2299 47.4257 60.3952 47.3005 60.5991C47.1771 60.8063 47.1181 61.0353 47.1235 61.2861C47.1273 61.5422 47.2 61.8001 47.3415 62.0599C47.483 62.3198 47.6593 62.519 47.8705 62.6578C48.0783 62.7983 48.3018 62.8713 48.541 62.8767C48.7802 62.882 49.0162 62.8213 49.249 62.6945C49.4818 62.5677 49.6609 62.4023 49.7861 62.1985C49.9113 61.9947 49.973 61.7664 49.971 61.5137C49.9656 61.2629 49.8922 61.0076 49.7507 60.7477C49.6091 60.4879 49.4336 60.286 49.2239 60.1421C49.0127 60.0034 48.7866 59.9296 48.5456 59.9209C48.3064 59.9155 48.0704 59.9763 47.8376 60.1031Z" />
<path d="M42.203 61.8915L43.5776 63.1276L44.0542 62.9717L43.556 61.4489L44.1804 61.2446L45.4259 65.0516L44.1113 65.4817C43.8191 65.5773 43.5559 65.6068 43.3216 65.5702C43.0837 65.5349 42.8873 65.4475 42.7326 65.3082C42.5742 65.17 42.4603 64.995 42.391 64.7832C42.3098 64.5349 42.3087 64.2846 42.3879 64.0323C42.4646 63.7848 42.6408 63.5756 42.9163 63.4046L41.458 62.1353L42.203 61.8915ZM44.2173 63.4702L43.5271 63.696C43.2934 63.7724 43.1372 63.8882 43.0586 64.0433C42.9763 64.1996 42.9674 64.3763 43.0319 64.5735C43.0964 64.7707 43.205 64.905 43.3577 64.9763C43.5116 65.0513 43.7073 65.0499 43.9446 64.9723L44.6348 64.7465L44.2173 63.4702Z" />
<path d="M37.5358 62.8684L39.337 64.4086L39.0687 62.6364L39.7183 62.5381L40.3178 66.4985L39.6682 66.5968L39.3948 64.7904L38.1296 66.8297L37.3147 66.9531L38.7355 64.7095L36.6867 62.997L37.5358 62.8684Z" />
</svg>
