<svg width="38" height="38" viewBox="0 0 38 38" fill="none" xmlns="http://www.w3.org/2000/svg">
<g clip-path="url(#clip0_4_747)">
<path d="M36.5909 9.62193C36.3798 8.82766 35.9638 8.10276 35.3846 7.51977C34.8053 6.93679 34.0831 6.51617 33.2902 6.30001C30.3713 5.51514 18.7043 5.51514 18.7043 5.51514C18.7043 5.51514 7.03723 5.51514 4.11836 6.30001C3.32545 6.51617 2.60323 6.93679 2.02397 7.51977C1.44471 8.10276 1.02872 8.82766 0.817648 9.62193C0.0370179 12.5535 0.0370178 18.6671 0.0370178 18.6671C0.0370178 18.6671 0.0370179 24.7806 0.817648 27.7122C1.02872 28.5065 1.44471 29.2314 2.02397 29.8143C2.60323 30.3973 3.32545 30.8179 4.11836 31.0341C7.03723 31.819 18.7043 31.819 18.7043 31.819C18.7043 31.819 30.3713 31.819 33.2902 31.0341C34.0831 30.8179 34.8053 30.3973 35.3846 29.8143C35.9638 29.2314 36.3798 28.5065 36.5909 27.7122C37.3715 24.7806 37.3715 18.6671 37.3715 18.6671C37.3715 18.6671 37.3715 12.5535 36.5909 9.62193Z" fill="#5CA369"/>
<path d="M14.886 24.2185V13.1157L24.6439 18.6671L14.886 24.2185Z" fill="#FEFEFE"/>
</g>
<defs>
<clipPath id="clip0_4_747">
<rect width="37.3345" height="37.3345" fill="white"/>
</clipPath>
</defs>
</svg>
