<svg width="38" height="38" viewBox="0 0 38 38" fill="none" xmlns="http://www.w3.org/2000/svg">
<path fill-rule="evenodd" clip-rule="evenodd" d="M19 34.8334C27.7445 34.8334 34.8333 27.7446 34.8333 19.0001C34.8333 10.2556 27.7445 3.16675 19 3.16675C10.2555 3.16675 3.16666 10.2556 3.16666 19.0001C3.16666 27.7446 10.2555 34.8334 19 34.8334Z" stroke="#FF8964"/>
<path fill-rule="evenodd" clip-rule="evenodd" d="M19 33.25C19 33.25 25.3333 28.0682 25.3333 19C25.3333 9.93182 19 4.75 19 4.75C19 4.75 12.6667 9.93182 12.6667 19C12.6667 28.0682 19 33.25 19 33.25Z" stroke="#FF8964"/>
<path d="M3.95832 14.2501H34.0417" stroke="#FF8964" stroke-linecap="round"/>
<path d="M3.95832 23.7501H34.0417" stroke="#FF8964" stroke-linecap="round"/>
</svg>
