<svg width="31" height="31" viewBox="0 0 31 31" fill="none" xmlns="http://www.w3.org/2000/svg">
<path d="M6.13276 9.87537L5.70653 14.5639L5.70525 14.5779C5.64167 15.2773 5.60969 15.6291 5.66779 15.9632C5.71962 16.2613 5.82295 16.548 5.97394 16.8102C6.14338 17.1044 6.39371 17.3547 6.89111 17.8521L6.89981 17.8608L13.5683 24.5293L13.5744 24.5354C14.5934 25.5544 15.1033 26.0642 15.6919 26.2555C16.2108 26.4241 16.7698 26.4241 17.2886 26.2555C17.8785 26.0639 18.391 25.5523 19.4141 24.5292L24.5288 19.4145C25.5519 18.3915 26.0623 17.88 26.254 17.2902C26.4226 16.7713 26.4226 16.2125 26.254 15.6936C26.0623 15.1038 25.5516 14.5923 24.5286 13.5692L17.8601 6.90069C17.3569 6.39751 17.1052 6.14588 16.8093 5.97546C16.5472 5.82446 16.2603 5.72066 15.9622 5.66884C15.6258 5.61035 15.2714 5.64252 14.5627 5.70694L9.87417 6.13317L9.87302 6.13328C8.65347 6.24414 8.04317 6.29963 7.56582 6.56507C7.14483 6.79917 6.79766 7.14635 6.56355 7.56734C6.29938 8.04239 6.24426 8.64882 6.13446 9.85669L6.13276 9.87537Z" stroke="#E6C54A" stroke-width="2" stroke-linecap="round" stroke-linejoin="round"/>
</svg>
