<svg width="31" height="31" viewBox="0 0 31 31" fill="none" xmlns="http://www.w3.org/2000/svg">
<path fill-rule="evenodd" clip-rule="evenodd" d="M17.5845 2.98369C17.9419 3.13583 18.1738 3.48666 18.1738 3.87502V12.9143H23.25C23.5945 12.9143 23.9131 13.0973 24.0867 13.3948C24.2604 13.6924 24.2629 14.0597 24.0935 14.3597L23.4579 15.4845C21.0475 19.7504 17.9735 23.6055 14.3512 26.9052L13.3237 27.8412C13.0401 28.0995 12.6307 28.1662 12.2798 28.0112C11.9289 27.8561 11.7025 27.5087 11.7025 27.125V18.1623H6.45837C5.92335 18.1623 5.48962 17.7286 5.48962 17.1936C5.48962 17.0203 5.53512 16.8576 5.61483 16.7169C7.8866 12.5171 10.7951 8.69445 14.2371 5.38491L16.5336 3.17672C16.8135 2.90754 17.2272 2.83156 17.5845 2.98369ZM8.11762 16.2248H12.6713C13.2063 16.2248 13.64 16.6586 13.64 17.1936V24.9221C16.7641 21.9699 19.4418 18.5776 21.5882 14.8519H17.205C16.67 14.8519 16.2363 14.4181 16.2363 13.8831V6.15045L15.58 6.78153C12.6727 9.57696 10.1626 12.7545 8.11762 16.2248Z" fill="#6AAF60"/>
</svg>
