<svg width="31" height="31" viewBox="0 0 31 31" fill="none" xmlns="http://www.w3.org/2000/svg">
<path d="M27.1253 25.8335H8.00859C6.56178 25.8335 5.83784 25.8335 5.28524 25.5519C4.79915 25.3042 4.40424 24.9091 4.15657 24.423C3.875 23.8704 3.875 23.147 3.875 21.7002V6.4585M27.125 9.04183L19.5743 15.6487C18.67 16.4399 18.2178 16.8356 17.7226 16.9998C17.1385 17.1936 16.5043 17.1724 15.9344 16.9403C15.4513 16.7434 15.0267 16.3187 14.177 15.469C13.3458 14.6378 12.9302 14.2222 12.4563 14.0256C11.8972 13.7937 11.2746 13.7653 10.6968 13.9457C10.207 14.0986 9.75534 14.4749 8.8523 15.2274L3.875 19.3751" stroke="#CE5D30" stroke-width="2" stroke-linecap="round" stroke-linejoin="round"/>
</svg>
